<svg id="my-svg" width="100%" xmlns="http://www.w3.org/2000/svg" xmlns:xlink="http://www.w3.org/1999/xlink" class="flowchart" style="max-width: 527.875px; background-color: white;" viewBox="0 -49 527.875 823.946533203125" role="graphics-document document" aria-roledescription="flowchart-v2"><style>#my-svg{font-family:"Apple SD Gothic Neo","Noto Sans KR","Malgun Gothic",sans-serif;font-size:14px;fill:#2E3A46;}@keyframes edge-animation-frame{from{stroke-dashoffset:0;}}@keyframes dash{to{stroke-dashoffset:0;}}#my-svg .edge-animation-slow{stroke-dasharray:9,5!important;stroke-dashoffset:900;animation:dash 50s linear infinite;stroke-linecap:round;}#my-svg .edge-animation-fast{stroke-dasharray:9,5!important;stroke-dashoffset:900;animation:dash 20s linear infinite;stroke-linecap:round;}#my-svg .error-icon{fill:hsl(30, 10%, 100%);}#my-svg .error-text{fill:#000000;stroke:#000000;}#my-svg .edge-thickness-normal{stroke-width:1px;}#my-svg .edge-thickness-thick{stroke-width:3.5px;}#my-svg .edge-pattern-solid{stroke-dasharray:0;}#my-svg .edge-thickness-invisible{stroke-width:0;fill:none;}#my-svg .edge-pattern-dashed{stroke-dasharray:3;}#my-svg .edge-pattern-dotted{stroke-dasharray:2;}#my-svg .marker{fill:#8A94A0;stroke:#8A94A0;}#my-svg .marker.cross{stroke:#8A94A0;}#my-svg svg{font-family:"Apple SD Gothic Neo","Noto Sans KR","Malgun Gothic",sans-serif;font-size:14px;}#my-svg p{margin:0;}#my-svg .label{font-family:"Apple SD Gothic Neo","Noto Sans KR","Malgun Gothic",sans-serif;color:#2E3A46;}#my-svg .cluster-label text{fill:#000000;}#my-svg .cluster-label span{color:#000000;}#my-svg .cluster-label span p{background-color:transparent;}#my-svg .label text,#my-svg span{fill:#2E3A46;color:#2E3A46;}#my-svg .node rect,#my-svg .node circle,#my-svg .node ellipse,#my-svg .node polygon,#my-svg .node path{fill:#F4F5F6;stroke:#5A6672;stroke-width:1px;}#my-svg .rough-node .label text,#my-svg .node .label text,#my-svg .image-shape .label,#my-svg .icon-shape .label{text-anchor:middle;}#my-svg .node .katex path{fill:#000;stroke:#000;stroke-width:1px;}#my-svg .rough-node .label,#my-svg .node .label,#my-svg .image-shape .label,#my-svg .icon-shape .label{text-align:center;}#my-svg .node.clickable{cursor:pointer;}#my-svg .root .anchor path{fill:#8A94A0!important;stroke-width:0;stroke:#8A94A0;}#my-svg .arrowheadPath{fill:#0b0b0b;}#my-svg .edgePaths .path{stroke:#8A94A0;stroke-width:1px;}#my-svg .flowchart-link{stroke:#8A94A0;fill:none;}#my-svg .edgeLabel{background-color:#FFFFFF;text-align:center;}#my-svg .edgeLabel p{background-color:#FFFFFF;}#my-svg .edgeLabel rect{opacity:0.5;background-color:#FFFFFF;fill:#FFFFFF;}#my-svg .labelBkg{background-color:rgba(255, 255, 255, 0.5);}#my-svg .cluster rect{fill:#FCFCFB;stroke:#8A94A0;stroke-width:1px;}#my-svg .cluster text{fill:#000000;}#my-svg .cluster span{color:#000000;}#my-svg .node .collapsed-indicator{fill:#8A94A0;stroke:none;opacity:0.6;}#my-svg .node .collapsed-separator{stroke:#8A94A0;stroke-width:0.75px;}#my-svg div.mermaidTooltip{position:absolute;text-align:center;max-width:200px;padding:2px;font-family:"Apple SD Gothic Neo","Noto Sans KR","Malgun Gothic",sans-serif;font-size:12px;background:hsl(30, 10%, 100%);border:1px solid hsl(30, 0%, 90%);border-radius:2px;pointer-events:none;z-index:100;}#my-svg .flowchartTitleText{text-anchor:middle;font-size:18px;fill:#2E3A46;}#my-svg rect.text{fill:none;stroke-width:0;}#my-svg .icon-shape,#my-svg .image-shape{background-color:#FFFFFF;text-align:center;}#my-svg .icon-shape p,#my-svg .image-shape p{background-color:#FFFFFF;padding:2px;}#my-svg .icon-shape .label rect,#my-svg .image-shape .label rect{opacity:0.5;background-color:#FFFFFF;fill:#FFFFFF;}#my-svg .label-icon{display:inline-block;height:1em;overflow:visible;vertical-align:-0.125em;}#my-svg .node .label-icon path{fill:currentColor;stroke:revert;stroke-width:revert;}#my-svg .node .neo-node{stroke:#5A6672;}#my-svg [data-look="neo"].node rect,#my-svg [data-look="neo"].cluster rect,#my-svg [data-look="neo"].node polygon{stroke:url(#my-svg-gradient);filter:drop-shadow( 1px 2px 2px rgba(185,185,185,1));}#my-svg [data-look="neo"].swimlane.cluster rect{filter:none;}#my-svg [data-look="neo"].node path{stroke:url(#my-svg-gradient);stroke-width:1px;}#my-svg [data-look="neo"].node .outer-path{filter:drop-shadow( 1px 2px 2px rgba(185,185,185,1));}#my-svg [data-look="neo"].node .neo-line path{stroke:#5A6672;filter:none;}#my-svg [data-look="neo"].node circle{stroke:url(#my-svg-gradient);filter:drop-shadow( 1px 2px 2px rgba(185,185,185,1));}#my-svg [data-look="neo"].node circle .state-start{fill:#000000;}#my-svg [data-look="neo"].icon-shape .icon{fill:url(#my-svg-gradient);filter:drop-shadow( 1px 2px 2px rgba(185,185,185,1));}#my-svg [data-look="neo"].icon-shape .icon-neo path{stroke:url(#my-svg-gradient);filter:drop-shadow( 1px 2px 2px rgba(185,185,185,1));}#my-svg :root{--mermaid-font-family:"trebuchet ms",verdana,arial,sans-serif;}#my-svg .ext&gt;*{fill:rgb(244, 245, 246)!important;stroke:rgb(138, 148, 160)!important;stroke-dasharray:4,3!important;color:rgb(90, 102, 114)!important;}#my-svg .ext span{fill:rgb(244, 245, 246)!important;stroke:rgb(138, 148, 160)!important;stroke-dasharray:4,3!important;color:rgb(90, 102, 114)!important;}#my-svg .ext tspan{fill:rgb(90, 102, 114)!important;}#my-svg .trigger&gt;*{fill:rgb(254, 248, 230)!important;stroke:rgb(184, 148, 31)!important;color:rgb(107, 85, 17)!important;}#my-svg .trigger span{fill:rgb(254, 248, 230)!important;stroke:rgb(184, 148, 31)!important;color:rgb(107, 85, 17)!important;}#my-svg .trigger tspan{fill:rgb(107, 85, 17)!important;}#my-svg .step&gt;*{fill:rgb(239, 245, 252)!important;stroke:rgb(46, 92, 138)!important;color:rgb(31, 58, 90)!important;}#my-svg .step span{fill:rgb(239, 245, 252)!important;stroke:rgb(46, 92, 138)!important;color:rgb(31, 58, 90)!important;}#my-svg .step tspan{fill:rgb(31, 58, 90)!important;}#my-svg .filter&gt;*{fill:rgb(232, 246, 245)!important;stroke:rgb(30, 127, 121)!important;color:rgb(20, 86, 83)!important;}#my-svg .filter span{fill:rgb(232, 246, 245)!important;stroke:rgb(30, 127, 121)!important;color:rgb(20, 86, 83)!important;}#my-svg .filter tspan{fill:rgb(20, 86, 83)!important;}#my-svg .file&gt;*{fill:rgb(254, 248, 230)!important;stroke:rgb(184, 148, 31)!important;color:rgb(107, 85, 17)!important;}#my-svg .file span{fill:rgb(254, 248, 230)!important;stroke:rgb(184, 148, 31)!important;color:rgb(107, 85, 17)!important;}#my-svg .file tspan{fill:rgb(107, 85, 17)!important;}#my-svg .table&gt;*{fill:rgb(244, 245, 246)!important;stroke:rgb(90, 102, 114)!important;color:rgb(46, 58, 70)!important;}#my-svg .table span{fill:rgb(244, 245, 246)!important;stroke:rgb(90, 102, 114)!important;color:rgb(46, 58, 70)!important;}#my-svg .table tspan{fill:rgb(46, 58, 70)!important;}#my-svg .canon&gt;*{fill:rgb(244, 245, 246)!important;stroke:rgb(90, 102, 114)!important;stroke-width:3px!important;color:rgb(46, 58, 70)!important;}#my-svg .canon span{fill:rgb(244, 245, 246)!important;stroke:rgb(90, 102, 114)!important;stroke-width:3px!important;color:rgb(46, 58, 70)!important;}#my-svg .canon tspan{fill:rgb(46, 58, 70)!important;}#my-svg .index&gt;*{fill:rgb(242, 239, 249)!important;stroke:rgb(91, 75, 138)!important;color:rgb(62, 50, 96)!important;}#my-svg .index span{fill:rgb(242, 239, 249)!important;stroke:rgb(91, 75, 138)!important;color:rgb(62, 50, 96)!important;}#my-svg .index tspan{fill:rgb(62, 50, 96)!important;}#my-svg .nondet&gt;*{fill:rgb(253, 240, 227)!important;stroke:rgb(180, 105, 26)!important;color:rgb(138, 75, 18)!important;}#my-svg .nondet span{fill:rgb(253, 240, 227)!important;stroke:rgb(180, 105, 26)!important;color:rgb(138, 75, 18)!important;}#my-svg .nondet tspan{fill:rgb(138, 75, 18)!important;}#my-svg .tbd&gt;*{fill:rgb(254, 246, 245)!important;stroke:rgb(192, 57, 43)!important;stroke-dasharray:4,3!important;color:rgb(160, 48, 38)!important;}#my-svg .tbd span{fill:rgb(254, 246, 245)!important;stroke:rgb(192, 57, 43)!important;stroke-dasharray:4,3!important;color:rgb(160, 48, 38)!important;}#my-svg .tbd tspan{fill:rgb(160, 48, 38)!important;}#my-svg .ro&gt;*{fill:rgb(239, 247, 240)!important;stroke:rgb(47, 90, 52)!important;color:rgb(31, 63, 35)!important;}#my-svg .ro span{fill:rgb(239, 247, 240)!important;stroke:rgb(47, 90, 52)!important;color:rgb(31, 63, 35)!important;}#my-svg .ro tspan{fill:rgb(31, 63, 35)!important;}#my-svg .note&gt;*{fill:transparent!important;stroke:transparent!important;color:rgb(90, 102, 114)!important;font-size:12px!important;}#my-svg .note span{fill:transparent!important;stroke:transparent!important;color:rgb(90, 102, 114)!important;font-size:12px!important;}#my-svg .note tspan{fill:rgb(90, 102, 114)!important;}#my-svg .warn&gt;*{fill:transparent!important;stroke:transparent!important;color:rgb(160, 48, 38)!important;font-size:12px!important;}#my-svg .warn span{fill:transparent!important;stroke:transparent!important;color:rgb(160, 48, 38)!important;font-size:12px!important;}#my-svg .warn tspan{fill:rgb(160, 48, 38)!important;}</style><g><marker id="my-svg_flowchart-v2-pointEnd" class="marker flowchart-v2" viewBox="0 0 10 10" refX="5" refY="5" markerUnits="userSpaceOnUse" markerWidth="8" markerHeight="8" orient="auto"><path d="M 0 0 L 10 5 L 0 10 z" class="arrowMarkerPath" style="stroke-width: 1; stroke-dasharray: 1, 0;"/></marker><marker id="my-svg_flowchart-v2-pointStart" class="marker flowchart-v2" viewBox="0 0 10 10" refX="4.5" refY="5" markerUnits="userSpaceOnUse" markerWidth="8" markerHeight="8" orient="auto"><path d="M 0 5 L 10 10 L 10 0 z" class="arrowMarkerPath" style="stroke-width: 1; stroke-dasharray: 1, 0;"/></marker><marker id="my-svg_flowchart-v2-pointEnd-margin" class="marker flowchart-v2" viewBox="0 0 11.5 14" refX="11.5" refY="7" markerUnits="userSpaceOnUse" markerWidth="10.5" markerHeight="14" orient="auto"><path d="M 0 0 L 11.5 7 L 0 14 z" class="arrowMarkerPath" style="stroke-width: 0; stroke-dasharray: 1, 0;"/></marker><marker id="my-svg_flowchart-v2-pointStart-margin" class="marker flowchart-v2" viewBox="0 0 11.5 14" refX="1" refY="7" markerUnits="userSpaceOnUse" markerWidth="11.5" markerHeight="14" orient="auto"><polygon points="0,7 11.5,14 11.5,0" class="arrowMarkerPath" style="stroke-width: 0; stroke-dasharray: 1, 0;"/></marker><marker id="my-svg_flowchart-v2-circleEnd" class="marker flowchart-v2" viewBox="0 0 10 10" refX="11" refY="5" markerUnits="userSpaceOnUse" markerWidth="11" markerHeight="11" orient="auto"><circle cx="5" cy="5" r="5" class="arrowMarkerPath" style="stroke-width: 1; stroke-dasharray: 1, 0;"/></marker><marker id="my-svg_flowchart-v2-circleStart" class="marker flowchart-v2" viewBox="0 0 10 10" refX="-1" refY="5" markerUnits="userSpaceOnUse" markerWidth="11" markerHeight="11" orient="auto"><circle cx="5" cy="5" r="5" class="arrowMarkerPath" style="stroke-width: 1; stroke-dasharray: 1, 0;"/></marker><marker id="my-svg_flowchart-v2-circleEnd-margin" class="marker flowchart-v2" viewBox="0 0 10 10" refY="5" refX="12.25" markerUnits="userSpaceOnUse" markerWidth="14" markerHeight="14" orient="auto"><circle cx="5" cy="5" r="5" class="arrowMarkerPath" style="stroke-width: 0; stroke-dasharray: 1, 0;"/></marker><marker id="my-svg_flowchart-v2-circleStart-margin" class="marker flowchart-v2" viewBox="0 0 10 10" refX="-2" refY="5" markerUnits="userSpaceOnUse" markerWidth="14" markerHeight="14" orient="auto"><circle cx="5" cy="5" r="5" class="arrowMarkerPath" style="stroke-width: 0; stroke-dasharray: 1, 0;"/></marker><marker id="my-svg_flowchart-v2-crossEnd" class="marker cross flowchart-v2" viewBox="0 0 11 11" refX="12" refY="5.2" markerUnits="userSpaceOnUse" markerWidth="11" markerHeight="11" orient="auto"><path d="M 1,1 l 9,9 M 10,1 l -9,9" class="arrowMarkerPath" style="stroke-width: 2; stroke-dasharray: 1, 0;"/></marker><marker id="my-svg_flowchart-v2-crossStart" class="marker cross flowchart-v2" viewBox="0 0 11 11" refX="-1" refY="5.2" markerUnits="userSpaceOnUse" markerWidth="11" markerHeight="11" orient="auto"><path d="M 1,1 l 9,9 M 10,1 l -9,9" class="arrowMarkerPath" style="stroke-width: 2; stroke-dasharray: 1, 0;"/></marker><marker id="my-svg_flowchart-v2-crossEnd-margin" class="marker cross flowchart-v2" viewBox="0 0 15 15" refX="17.7" refY="7.5" markerUnits="userSpaceOnUse" markerWidth="12" markerHeight="12" orient="auto"><path d="M 1,1 L 14,14 M 1,14 L 14,1" class="arrowMarkerPath" style="stroke-width: 2.5;"/></marker><marker id="my-svg_flowchart-v2-crossStart-margin" class="marker cross flowchart-v2" viewBox="0 0 15 15" refX="-3.5" refY="7.5" markerUnits="userSpaceOnUse" markerWidth="12" markerHeight="12" orient="auto"><path d="M 1,1 L 14,14 M 1,14 L 14,1" class="arrowMarkerPath" style="stroke-width: 2.5; stroke-dasharray: 1, 0;"/></marker><g class="root"><g class="clusters"/><g class="edgePaths"><path d="M250.383,52L250.299,57.333C250.216,62.667,250.049,73.333,257.188,82.52C264.326,91.706,278.768,99.411,285.99,103.264L293.211,107.117" id="my-svg-L_cron_s1_0" class="edge-thickness-thick edge-pattern-solid edge-thickness-normal edge-pattern-solid flowchart-link" style=";" data-edge="true" data-et="edge" data-id="L_cron_s1_0" data-points="W3sieCI6MjUwLjM4MjgxMjUsInkiOjUyfSx7IngiOjI0OS44ODI4MTI1LCJ5Ijo4NH0seyJ4IjoyOTYuNzQwNDA4NDE1ODQxNTYsInkiOjEwOX1d" data-look="classic" marker-end="url(#my-svg_flowchart-v2-pointEnd)"/><path d="M299.437,160L292.068,164.167C284.699,168.333,269.961,176.667,262.592,184.333C255.223,192,255.223,199,255.223,202.5L255.223,206" id="my-svg-L_s1_s2_0" class="edge-thickness-thick edge-pattern-solid edge-thickness-normal edge-pattern-solid flowchart-link" style=";" data-edge="true" data-et="edge" data-id="L_s1_s2_0" data-points="W3sieCI6Mjk5LjQzNjc2NTE2MDg5MTA3LCJ5IjoxNjB9LHsieCI6MjU1LjIyMjY1NjI1LCJ5IjoxODV9LHsieCI6MjU1LjIyMjY1NjI1LCJ5IjoyMTB9XQ==" data-look="classic" marker-end="url(#my-svg_flowchart-v2-pointEnd)"/><path d="M218.145,361.688L211.451,372.034C204.757,382.381,191.369,403.073,184.675,418.04C177.98,433.006,177.98,442.247,177.98,446.868L177.98,451.488" id="my-svg-L_s2_s3_0" class="edge-thickness-thick edge-pattern-solid edge-thickness-normal edge-pattern-solid flowchart-link" style=";" data-edge="true" data-et="edge" data-id="L_s2_s3_0" data-points="W3sieCI6MjE4LjE0NTMwMTM4NzE3ODE2LCJ5IjozNjEuNjg4MjcwMTM3MTc4MTZ9LHsieCI6MTc3Ljk4MDQ2ODc1LCJ5Ijo0MjMuNzY1NjI1fSx7IngiOjE3Ny45ODA0Njg3NSwieSI6NDU1LjQ4ODE1OTE3OTY4NzV9XQ==" data-look="classic" marker-end="url(#my-svg_flowchart-v2-pointEnd)"/><path d="M140.995,506.488L133.327,511.775C125.658,517.062,110.321,527.637,102.653,537.486C94.984,547.335,94.984,556.459,94.984,561.021L94.984,565.583" id="my-svg-L_s3_s4_0" class="edge-thickness-thick edge-pattern-solid edge-thickness-normal edge-pattern-solid flowchart-link" style=";" data-edge="true" data-et="edge" data-id="L_s3_s4_0" data-points="W3sieCI6MTQwLjk5NTAzMjQ4ODQ4ODQyLCJ5Ijo1MDYuNDg4MTU5MTc5Njg3NX0seyJ4Ijo5NC45ODQzNzUsInkiOjUzOC4yMTA2OTMzNTkzNzV9LHsieCI6OTQuOTg0Mzc1LCJ5Ijo1NjkuNTgzNDI5MzM2NTQ3OX1d" data-look="classic" marker-end="url(#my-svg_flowchart-v2-pointEnd)"/><path d="M439.188,59L439.188,63.167C439.188,67.333,439.188,75.667,431.966,83.686C424.745,91.706,410.302,99.411,403.08,103.264L395.859,107.117" id="my-svg-L_api_s1_0" class="edge-thickness-normal edge-pattern-solid edge-thickness-normal edge-pattern-solid flowchart-link" style=";" data-edge="true" data-et="edge" data-id="L_api_s1_0" data-points="W3sieCI6NDM5LjE4NzUsInkiOjU5fSx7IngiOjQzOS4xODc1LCJ5Ijo4NH0seyJ4IjozOTIuMzI5OTA0MDg0MTU4NDQsInkiOjEwOX1d" data-look="classic" marker-end="url(#my-svg_flowchart-v2-pointEnd)"/><path d="M389.634,160L397.003,164.167C404.372,168.333,419.11,176.667,426.479,194.474C433.848,212.281,433.848,239.562,433.848,253.203L433.848,266.843" id="my-svg-L_s1_o1_0" class="edge-thickness-normal edge-pattern-solid edge-thickness-normal edge-pattern-solid flowchart-link" style=";" data-edge="true" data-et="edge" data-id="L_s1_o1_0" data-points="W3sieCI6Mzg5LjYzMzU0NzMzOTEwODkzLCJ5IjoxNjB9LHsieCI6NDMzLjg0NzY1NjI1LCJ5IjoxODV9LHsieCI6NDMzLjg0NzY1NjI1LCJ5IjoyNzAuODQzNDk4MjI5OTgwNDd9XQ==" data-look="classic" marker-end="url(#my-svg_flowchart-v2-pointEnd)"/><path d="M292.3,361.688L298.994,372.034C305.688,382.381,319.077,403.073,325.771,416.919C332.465,430.766,332.465,437.766,332.465,441.266L332.465,444.766" id="my-svg-L_s2_o2_0" class="edge-thickness-normal edge-pattern-solid edge-thickness-normal edge-pattern-solid flowchart-link" style=";" data-edge="true" data-et="edge" data-id="L_s2_o2_0" data-points="W3sieCI6MjkyLjMwMDAxMTExMjgyMTg0LCJ5IjozNjEuNjg4MjcwMTM3MTc4MTZ9LHsieCI6MzMyLjQ2NDg0Mzc1LCJ5Ijo0MjMuNzY1NjI1fSx7IngiOjMzMi40NjQ4NDM3NSwieSI6NDQ4Ljc2NTYyNX1d" data-look="classic" marker-end="url(#my-svg_flowchart-v2-pointEnd)"/><path d="M214.966,506.488L222.634,511.775C230.303,517.062,245.64,527.637,253.378,536.507C261.117,545.378,261.258,552.545,261.328,556.128L261.398,559.711" id="my-svg-L_s3_o3_0" class="edge-thickness-normal edge-pattern-solid edge-thickness-normal edge-pattern-solid flowchart-link" style=";" data-edge="true" data-et="edge" data-id="L_s3_o3_0" data-points="W3sieCI6MjE0Ljk2NTkwNTAxMTUxMTU4LCJ5Ijo1MDYuNDg4MTU5MTc5Njg3NX0seyJ4IjoyNjAuOTc2NTYyNSwieSI6NTM4LjIxMDY5MzM1OTM3NX0seyJ4IjoyNjEuNDc2NTYyNSwieSI6NTYzLjcxMDY5MzM1OTM3NX1d" data-look="classic" marker-end="url(#my-svg_flowchart-v2-pointEnd)"/><path d="M94.984,620.583L94.984,625.812C94.984,631.041,94.984,641.499,95.055,650.311C95.125,659.123,95.265,666.29,95.336,669.873L95.406,673.457" id="my-svg-L_s4_o4_0" class="edge-thickness-normal edge-pattern-dotted edge-thickness-normal edge-pattern-solid flowchart-link" style=";" data-edge="true" data-et="edge" data-id="L_s4_o4_0" data-points="W3sieCI6OTQuOTg0Mzc1LCJ5Ijo2MjAuNTgzNDI5MzM2NTQ3OX0seyJ4Ijo5NC45ODQzNzUsInkiOjY1MS45NTYxNjUzMTM3MjA3fSx7IngiOjk1LjQ4NDM3NSwieSI6Njc3LjQ1NjE2NTMxMzcyMDd9XQ==" data-look="classic" marker-end="url(#my-svg_flowchart-v2-pointEnd)"/></g><g class="edgeLabels"><g class="edgeLabel"><g class="label" data-id="L_cron_s1_0" transform="translate(0, 0)"><foreignObject width="0" height="0"><div xmlns="http://www.w3.org/1999/xhtml" class="labelBkg" style="display: table-cell; white-space: nowrap; line-height: 1.5; max-width: 200px; text-align: center;"><span class="edgeLabel"></span></div></foreignObject></g></g><g class="edgeLabel"><g class="label" data-id="L_s1_s2_0" transform="translate(0, 0)"><foreignObject width="0" height="0"><div xmlns="http://www.w3.org/1999/xhtml" class="labelBkg" style="display: table-cell; white-space: nowrap; line-height: 1.5; max-width: 200px; text-align: center;"><span class="edgeLabel"></span></div></foreignObject></g></g><g class="edgeLabel"><g class="label" data-id="L_s2_s3_0" transform="translate(0, 0)"><foreignObject width="0" height="0"><div xmlns="http://www.w3.org/1999/xhtml" class="labelBkg" style="display: table-cell; white-space: nowrap; line-height: 1.5; max-width: 200px; text-align: center;"><span class="edgeLabel"></span></div></foreignObject></g></g><g class="edgeLabel"><g class="label" data-id="L_s3_s4_0" transform="translate(0, 0)"><foreignObject width="0" height="0"><div xmlns="http://www.w3.org/1999/xhtml" class="labelBkg" style="display: table-cell; white-space: nowrap; line-height: 1.5; max-width: 200px; text-align: center;"><span class="edgeLabel"></span></div></foreignObject></g></g><g class="edgeLabel"><g class="label" data-id="L_api_s1_0" transform="translate(0, 0)"><foreignObject width="0" height="0"><div xmlns="http://www.w3.org/1999/xhtml" class="labelBkg" style="display: table-cell; white-space: nowrap; line-height: 1.5; max-width: 200px; text-align: center;"><span class="edgeLabel"></span></div></foreignObject></g></g><g class="edgeLabel"><g class="label" data-id="L_s1_o1_0" transform="translate(0, 0)"><foreignObject width="0" height="0"><div xmlns="http://www.w3.org/1999/xhtml" class="labelBkg" style="display: table-cell; white-space: nowrap; line-height: 1.5; max-width: 200px; text-align: center;"><span class="edgeLabel"></span></div></foreignObject></g></g><g class="edgeLabel"><g class="label" data-id="L_s2_o2_0" transform="translate(0, 0)"><foreignObject width="0" height="0"><div xmlns="http://www.w3.org/1999/xhtml" class="labelBkg" style="display: table-cell; white-space: nowrap; line-height: 1.5; max-width: 200px; text-align: center;"><span class="edgeLabel"></span></div></foreignObject></g></g><g class="edgeLabel"><g class="label" data-id="L_s3_o3_0" transform="translate(0, 0)"><foreignObject width="0" height="0"><div xmlns="http://www.w3.org/1999/xhtml" class="labelBkg" style="display: table-cell; white-space: nowrap; line-height: 1.5; max-width: 200px; text-align: center;"><span class="edgeLabel"></span></div></foreignObject></g></g><g class="edgeLabel"><g class="label" data-id="L_s4_o4_0" transform="translate(0, 0)"><foreignObject width="0" height="0"><div xmlns="http://www.w3.org/1999/xhtml" class="labelBkg" style="display: table-cell; white-space: nowrap; line-height: 1.5; max-width: 200px; text-align: center;"><span class="edgeLabel"></span></div></foreignObject></g></g></g><g class="nodes"><g class="node default trigger" id="my-svg-flowchart-cron-0" data-look="classic" transform="translate(249.8828125, 33.5)"><polygon points="9,0 128.234375,0 137.234375,-18 128.234375,-36 9,-36 0,-18" class="label-container" transform="translate(-68.6171875,18)" style="fill:#FEF8E6 !important;stroke:#B8941F !important"/><g class="label" style="color:#6B5511 !important" transform="translate(-52.1171875, -10.5)"><rect/><foreignObject width="104.234375" height="21"><div style="color: rgb(107, 85, 17) !important; display: table-cell; white-space: nowrap; line-height: 1.5; max-width: 200px; text-align: center;" xmlns="http://www.w3.org/1999/xhtml"><span style="color:#6B5511 !important" class="nodeLabel"><p>매일 03:00 (cron)</p></span></div></foreignObject></g></g><g class="node default ext" id="my-svg-flowchart-api-1" data-look="classic" transform="translate(439.1875, 33.5)"><rect class="basic label-container" style="fill:#F4F5F6 !important;stroke:#8A94A0 !important;stroke-dasharray:4 3 !important" x="-80.6875" y="-25.5" width="161.375" height="51"/><g class="label" style="color:#5A6672 !important" transform="translate(-50.6875, -10.5)"><rect/><foreignObject width="101.375" height="21"><div style="color: rgb(90, 102, 114) !important; display: table-cell; white-space: nowrap; line-height: 1.5; max-width: 200px; text-align: center;" xmlns="http://www.w3.org/1999/xhtml"><span style="color:#5A6672 !important" class="nodeLabel"><p>「바깥에서 받는 것」</p></span></div></foreignObject></g></g><g class="node default step" id="my-svg-flowchart-s1-2" data-look="classic" transform="translate(344.53515625, 134.5)"><rect class="basic label-container" style="fill:#EFF5FC !important;stroke:#2E5C8A !important" x="-75.0390625" y="-25.5" width="150.078125" height="51"/><g class="label" style="color:#1F3A5A !important" transform="translate(-45.0390625, -10.5)"><rect/><foreignObject width="90.078125" height="21"><div style="color: rgb(31, 58, 90) !important; display: table-cell; white-space: nowrap; line-height: 1.5; max-width: 200px; text-align: center;" xmlns="http://www.w3.org/1999/xhtml"><span style="color:#1F3A5A !important" class="nodeLabel"><p>1 · 「무엇을 한다」</p></span></div></foreignObject></g></g><g class="node default filter" id="my-svg-flowchart-s2-3" data-look="classic" transform="translate(255.22265625, 304.3828125)"><polygon points="94.3828125,0 188.765625,-94.3828125 94.3828125,-188.765625 0,-94.3828125" class="label-container" transform="translate(-93.8828125, 94.3828125)" style="fill:#E8F6F5 !important;stroke:#1E7F79 !important"/><g class="label" style="color:#145653 !important" transform="translate(-58.3828125, -21)"><rect/><foreignObject width="116.765625" height="42"><div style="color: rgb(20, 86, 83) !important; display: table-cell; white-space: nowrap; line-height: 1.5; max-width: 200px; text-align: center;" xmlns="http://www.w3.org/1999/xhtml"><span style="color:#145653 !important" class="nodeLabel"><p>2 · 「무엇으로 거른다」<br />  통과: 「조건 한 줄」</p></span></div></foreignObject></g></g><g class="node default step" id="my-svg-flowchart-s3-4" data-look="classic" transform="translate(177.98046875, 480.9881591796875)"><rect class="basic label-container" style="fill:#EFF5FC !important;stroke:#2E5C8A !important" x="-76.296875" y="-25.5" width="152.59375" height="51"/><g class="label" style="color:#1F3A5A !important" transform="translate(-46.296875, -10.5)"><rect/><foreignObject width="92.59375" height="21"><div style="color: rgb(31, 58, 90) !important; display: table-cell; white-space: nowrap; line-height: 1.5; max-width: 200px; text-align: center;" xmlns="http://www.w3.org/1999/xhtml"><span style="color:#1F3A5A !important" class="nodeLabel"><p>3 · 「무엇을 한다」</p></span></div></foreignObject></g></g><g class="node default nondet" id="my-svg-flowchart-s4-5" data-look="classic" transform="translate(94.984375, 595.0834293365479)"><rect class="basic label-container" style="fill:#FDF0E3 !important;stroke:#B4691A !important" x="-86.6953125" y="-25.5" width="173.390625" height="51"/><g class="label" style="color:#8A4B12 !important" transform="translate(-56.6953125, -10.5)"><rect/><foreignObject width="113.390625" height="21"><div style="color: rgb(138, 75, 18) !important; display: table-cell; white-space: nowrap; line-height: 1.5; max-width: 200px; text-align: center;" xmlns="http://www.w3.org/1999/xhtml"><span style="color:#8A4B12 !important" class="nodeLabel"><p>4 · 「LLM 이 하는 것」</p></span></div></foreignObject></g></g><g class="node default table" id="my-svg-flowchart-o1-6" data-look="classic" transform="translate(433.84765625, 304.3828125)"><path d="M0,10.361926370489645 a44.2421875,10.361926370489645 0,0,0 88.484375,0 a44.2421875,10.361926370489645 0,0,0 -88.484375,0 l0,46.36192637048964 a44.2421875,10.361926370489645 0,0,0 88.484375,0 l0,-46.36192637048964" class="basic label-container outer-path" style="fill:#F4F5F6 !important;stroke:#5A6672 !important" transform="translate(-44.2421875, -33.54288955573446)"/><g class="label" style="color:#2E3A46 !important" transform="translate(-36.7421875, -0.5)"><rect/><foreignObject width="73.484375" height="21"><div style="color: rgb(46, 58, 70) !important; display: table-cell; white-space: nowrap; line-height: 1.5; max-width: 200px; text-align: center;" xmlns="http://www.w3.org/1999/xhtml"><span style="color:#2E3A46 !important" class="nodeLabel"><p>「원본 테이블」</p></span></div></foreignObject></g></g><g class="node default table" id="my-svg-flowchart-o2-7" data-look="classic" transform="translate(332.46484375, 480.9881591796875)"><path d="M0,9.481688392302917 a38.1875,9.481688392302917 0,0,0 76.375,0 a38.1875,9.481688392302917 0,0,0 -76.375,0 l0,45.481688392302914 a38.1875,9.481688392302917 0,0,0 76.375,0 l0,-45.481688392302914" class="basic label-container outer-path" style="fill:#F4F5F6 !important;stroke:#5A6672 !important" transform="translate(-38.1875, -32.22253258845437)"/><g class="label" style="color:#2E3A46 !important" transform="translate(-30.6875, -0.5)"><rect/><foreignObject width="61.375" height="21"><div style="color: rgb(46, 58, 70) !important; display: table-cell; white-space: nowrap; line-height: 1.5; max-width: 200px; text-align: center;" xmlns="http://www.w3.org/1999/xhtml"><span style="color:#2E3A46 !important" class="nodeLabel"><p>「거른 결과」</p></span></div></foreignObject></g></g><g class="node default file" id="my-svg-flowchart-o3-8" data-look="classic" transform="translate(260.9765625, 595.0834293365479)"><g class="basic label-container outer-path" transform="translate(0,-3.1875)"><path d="M-39.296875 28.6875 C-39.296875 28.6875, -39.296875 28.6875, -39.296875 28.6875 C-38.925181091948104 28.838791907642445, -38.55348718389621 28.990083815284887, -37.725 29.327305932176493 C-37.39912760984152 29.458607538242337, -37.073255219683034 29.58990914430818, -36.153125 29.960651125779343 C-35.65469972673453 30.157401743887284, -35.156274453469045 30.354152361995222, -34.58125 30.5811400825536 C-34.067492841069864 30.777693004229953, -33.55373568213973 30.974245925906306, -33.009375 31.182507126087167 C-32.63592943820775 31.31939401610481, -32.2624838764155 31.45628090612245, -31.4375 31.758679672398436 C-31.078119904719763 31.883320377925845, -30.718739809439526 32.00796108345325, -29.865625 32.30383955068307 C-29.259820976965216 32.49987135579711, -28.654016953930427 32.69590316091115, -28.29375 32.81248175500521 C-27.744965193210458 32.975520210527925, -27.19618038642092 33.13855866605065, -26.721874999999997 33.27947003366041 C-26.389060552435126 33.36852799777023, -26.05624610487025 33.457585961880056, -25.15 33.70008875487095 C-24.78977140017982 33.78488253275514, -24.429542800359645 33.869676310639335, -23.578125 34.070090525075344 C-23.233963231866905 34.13920172311277, -22.88980146373381 34.208312921150196, -22.00625 34.385739078964306 C-21.670698795964693 34.44083787906799, -21.335147591929385 34.49593667917168, -20.434375 34.643847008160904 C-19.993442049597714 34.69937782395388, -19.552509099195426 34.75490863974686, -18.8625 34.841807947562124 C-18.42681072060898 34.87945287243574, -17.991121441217963 34.91709779730936, -17.290625 34.97762289432516 C-16.699784229873497 35.00479828055289, -16.108943459746996 35.03197366678062, -15.71875 35.04992039373023 C-15.284249780284647 35.05214558613759, -14.849749560569293 35.05437077854495, -14.146874999999998 35.05797038808376 C-13.723337320849037 35.04280621025333, -13.299799641698076 35.027642032422904, -12.575 35.00169158881615 C-12.055852299155795 34.96204586496059, -11.53670459831159 34.92240014110503, -11.003125 34.881652297331044 C-10.418513627169816 34.81374434941603, -9.83390225433963 34.745836401501, -9.431249999999999 34.699064666317014 C-9.085753239767406 34.64558925048867, -8.740256479534814 34.592113834660324, -7.859375 34.45577245947088 C-7.254448805230904 34.339726679340956, -6.649522610461809 34.223680899211026, -6.287500000000001 34.15423243323453 C-5.804596110252619 34.044635591048575, -5.321692220505236 33.93503874886262, -4.715625000000003 33.79748952855184 C-4.148548105426752 33.65017367312441, -3.5814712108535014 33.50285781769696, -3.143749999999997 33.389146123158355 C-2.6703104784423335 33.25185567422853, -2.1968709568846703 33.1145652252987, -1.5718749999999986 32.93332565489335 C-1.24125642859362 32.82843326849568, -0.9106378571872414 32.723540882098014, 0 32.434630983364514 C0.4389398689565711 32.284806247475444, 0.8778797379131422 32.134981511586375, 1.5718749999999986 31.898097910427975 C1.953897296166668 31.759821677487395, 2.3359195923333376 31.621545444546815, 3.1437500000000043 31.329144328832186 C3.6766660860153686 31.12720703896719, 4.209582172030733 30.925269749102192, 4.715625000000003 30.733515512520963 C5.126577036386139 30.572392402447797, 5.537529072772275 30.41126929237463, 6.287499999999994 30.11722610105231 C6.78688189389418 29.916845337637508, 7.286263787788366 29.716464574222705, 7.859375 29.48649936397244 C8.244377176258677 29.33003815216564, 8.629379352517354 29.17357694035883, 9.431249999999999 28.847704358451278 C9.952437411407866 28.6353623718955, 10.473624822815733 28.42302038533972, 11.003125000000004 28.207291614759427 C11.522669516043258 27.997221735699394, 12.042214032086513 27.787151856639362, 12.575000000000003 27.571727999032614 C13.012299361990348 27.398047204054823, 13.449598723980692 27.224366409077028, 14.146875000000001 26.94743141107705 C14.708878172255424 26.73050473507267, 15.270881344510848 26.513578059068294, 15.71875 26.340705976635178 C16.13467064575215 26.186435941846987, 16.550591291504297 26.032165907058793, 17.290625 25.757678388538018 C17.643704304310454 25.63336249856591, 17.996783608620905 25.5090466085938, 18.862499999999997 25.20423603956904 C19.342318580034913 25.046033357870208, 19.82213716006983 24.887830676171376, 20.434375000000003 24.685967571771783 C20.770640267930684 24.583740549484794, 21.10690553586137 24.481513527197805, 22.00625 24.208106442532337 C22.51788789373892 24.067287951521944, 23.029525787477837 23.92646946051155, 23.578125 23.775478077304346 C24.140012400156767 23.638560059958156, 24.701899800313537 23.501642042611966, 25.14999999999999 23.392451142626697 C25.772301245228714 23.261980097522553, 26.394602490457437 23.131509052418412, 26.721874999999997 23.062893431477175 C27.311437537931397 22.960589211134987, 27.9010000758628 22.858284990792804, 28.293750000000003 22.79013280643033 C28.877171574475422 22.710997471994038, 29.460593148950842 22.631862137557746, 29.865624999999994 22.57692359501423 C30.209028858707054 22.543824691313503, 30.552432717414113 22.51072578761278, 31.4375 22.42541877660461 C31.989554616137895 22.394417484354097, 32.54160923227579 22.363416192103585, 33.009375000000006 22.337148241712274 C33.57192759531872 22.328507112283148, 34.13448019063743 22.319865982854022, 34.58125 22.313003343200673 C34.90292814515012 22.32123514239095, 35.224606290300244 22.329466941581227, 36.153125 22.353227895434948 C36.75837911703459 22.3933456561181, 37.36363323406918 22.433463416801253, 37.724999999999994 22.457415712252764 C38.09843220156169 22.497113618314994, 38.47186440312339 22.536811524377224, 39.296875 22.624514708618396 C39.296875 8.538085226359549, 39.296875 -5.548344255899298, 39.296875 -28.6875 C20.964725363441545 -28.6875, 2.63257572688309 -28.6875, -39.296875 -28.6875 C-39.296875 -15.299976588089319, -39.296875 -1.9124531761786372, -39.296875 28.6875" stroke="none" stroke-width="0" fill="#FEF8E6" style="fill:#FEF8E6 !important;stroke:#B8941F !important"/><path d="M-39.296875 28.6875 C-39.296875 28.6875, -39.296875 28.6875, -39.296875 28.6875 M-39.296875 28.6875 C-39.296875 28.6875, -39.296875 28.6875, -39.296875 28.6875 M-39.296875 28.6875 C-38.9042601482496 28.847307434567316, -38.511645296499196 29.007114869134632, -37.725 29.327305932176493 M-39.296875 28.6875 C-38.789359820359735 28.89407572809763, -38.28184464071948 29.100651456195255, -37.725 29.327305932176493 M-37.725 29.327305932176493 C-37.18298608898476 29.5456960111633, -36.640972177969516 29.764086090150105, -36.153125 29.960651125779343 M-37.725 29.327305932176493 C-37.111874495194755 29.574348535146655, -36.49874899038951 29.821391138116816, -36.153125 29.960651125779343 M-36.153125 29.960651125779343 C-35.765871040735206 30.113517482958454, -35.37861708147041 30.26638384013756, -34.58125 30.5811400825536 M-36.153125 29.960651125779343 C-35.64364943442713 30.161763785618252, -35.13417386885426 30.36287644545716, -34.58125 30.5811400825536 M-34.58125 30.5811400825536 C-33.96535430119624 30.816769108725946, -33.34945860239248 31.05239813489829, -33.009375 31.182507126087167 M-34.58125 30.5811400825536 C-34.18176335621637 30.733975455533834, -33.78227671243275 30.88681082851407, -33.009375 31.182507126087167 M-33.009375 31.182507126087167 C-32.62657335042456 31.322823500587706, -32.243771700849116 31.463139875088245, -31.4375 31.758679672398436 M-33.009375 31.182507126087167 C-32.53068776871803 31.357970468232324, -32.05200053743607 31.533433810377485, -31.4375 31.758679672398436 M-31.4375 31.758679672398436 C-31.01800415026685 31.904169807670918, -30.598508300533698 32.0496599429434, -29.865625 32.30383955068307 M-31.4375 31.758679672398436 C-30.83549783096576 31.967466903697233, -30.233495661931517 32.17625413499603, -29.865625 32.30383955068307 M-29.865625 32.30383955068307 C-29.48687087028122 32.4264004002648, -29.10811674056244 32.54896124984652, -28.29375 32.81248175500521 M-29.865625 32.30383955068307 C-29.425547709636994 32.446243929556935, -28.985470419273987 32.5886483084308, -28.29375 32.81248175500521 M-28.29375 32.81248175500521 C-27.92016353675465 32.92347054189973, -27.546577073509305 33.034459328794256, -26.721874999999997 33.27947003366041 M-28.29375 32.81248175500521 C-27.852000341781583 32.94372114267149, -27.410250683563167 33.074960530337776, -26.721874999999997 33.27947003366041 M-26.721874999999997 33.27947003366041 C-26.101009309535733 33.44560775629521, -25.480143619071466 33.61174547893001, -25.15 33.70008875487095 M-26.721874999999997 33.27947003366041 C-26.330197784934363 33.384279111563046, -25.938520569868732 33.48908818946569, -25.15 33.70008875487095 M-25.15 33.70008875487095 C-24.688013482777983 33.80883520683609, -24.226026965555967 33.91758165880123, -23.578125 34.070090525075344 M-25.15 33.70008875487095 C-24.605230780309537 33.82832132784166, -24.060461560619075 33.956553900812374, -23.578125 34.070090525075344 M-23.578125 34.070090525075344 C-22.962729080158457 34.19366831094709, -22.347333160316914 34.317246096818835, -22.00625 34.385739078964306 M-23.578125 34.070090525075344 C-23.034728249745076 34.17921014235148, -22.49133149949015 34.28832975962762, -22.00625 34.385739078964306 M-22.00625 34.385739078964306 C-21.426369922087428 34.48095762120995, -20.846489844174855 34.5761761634556, -20.434375 34.643847008160904 M-22.00625 34.385739078964306 C-21.410057645134692 34.48363615991357, -20.813865290269383 34.58153324086284, -20.434375 34.643847008160904 M-20.434375 34.643847008160904 C-20.071921640019617 34.6894941541686, -19.709468280039236 34.735141300176295, -18.8625 34.841807947562124 M-20.434375 34.643847008160904 C-20.055473584415026 34.691565611847366, -19.676572168830052 34.73928421553382, -18.8625 34.841807947562124 M-18.8625 34.841807947562124 C-18.256611176718227 34.89415864865371, -17.650722353436453 34.94650934974529, -17.290625 34.97762289432516 M-18.8625 34.841807947562124 C-18.277613165172834 34.892344010757, -17.69272633034567 34.94288007395188, -17.290625 34.97762289432516 M-17.290625 34.97762289432516 C-16.805002694875594 34.999958816911764, -16.31938038975119 35.02229473949837, -15.71875 35.04992039373023 M-17.290625 34.97762289432516 C-16.84288846259841 34.99821628250579, -16.395151925196824 35.01880967068641, -15.71875 35.04992039373023 M-15.71875 35.04992039373023 C-15.34275324881629 35.05184597415105, -14.96675649763258 35.05377155457187, -14.146874999999998 35.05797038808376 M-15.71875 35.04992039373023 C-15.264952855678427 35.052244410875005, -14.811155711356852 35.05456842801977, -14.146874999999998 35.05797038808376 M-14.146874999999998 35.05797038808376 C-13.807489109646678 35.04581914806948, -13.46810321929336 35.03366790805519, -12.575 35.00169158881615 M-14.146874999999998 35.05797038808376 C-13.708693026178059 35.04228189164008, -13.270511052356118 35.0265933951964, -12.575 35.00169158881615 M-12.575 35.00169158881615 C-12.096599262400574 34.965157586056776, -11.618198524801148 34.92862358329741, -11.003125 34.881652297331044 M-12.575 35.00169158881615 C-11.987615280438709 34.95683481231337, -11.400230560877416 34.91197803581058, -11.003125 34.881652297331044 M-11.003125 34.881652297331044 C-10.39649013688284 34.81118611996511, -9.789855273765676 34.74071994259917, -9.431249999999999 34.699064666317014 M-11.003125 34.881652297331044 C-10.658655486873387 34.84163901869353, -10.314185973746774 34.80162574005601, -9.431249999999999 34.699064666317014 M-9.431249999999999 34.699064666317014 C-9.017191844049936 34.63497743131185, -8.603133688099875 34.5708901963067, -7.859375 34.45577245947088 M-9.431249999999999 34.699064666317014 C-8.917006351474406 34.61947088684575, -8.402762702948813 34.53987710737448, -7.859375 34.45577245947088 M-7.859375 34.45577245947088 C-7.349145639572782 34.35789280954339, -6.838916279145564 34.260013159615895, -6.287500000000001 34.15423243323453 M-7.859375 34.45577245947088 C-7.53339984172653 34.393239142395295, -7.207424683453061 34.33070582531972, -6.287500000000001 34.15423243323453 M-6.287500000000001 34.15423243323453 C-5.970356829512727 34.082255605662425, -5.653213659025452 34.01027877809032, -4.715625000000003 33.79748952855184 M-6.287500000000001 34.15423243323453 C-5.8764125710188795 34.06093460516725, -5.4653251420377575 33.96763677709996, -4.715625000000003 33.79748952855184 M-4.715625000000003 33.79748952855184 C-4.379057614540995 33.71005568532467, -4.042490229081989 33.622621842097494, -3.143749999999997 33.389146123158355 M-4.715625000000003 33.79748952855184 C-4.241009819845496 33.674193478347, -3.7663946396909904 33.550897428142164, -3.143749999999997 33.389146123158355 M-3.143749999999997 33.389146123158355 C-2.5275944500505485 33.21047013982505, -1.9114389001010998 33.03179415649174, -1.5718749999999986 32.93332565489335 M-3.143749999999997 33.389146123158355 C-2.597332059157075 33.23069301355141, -2.050914118314153 33.072239903944464, -1.5718749999999986 32.93332565489335 M-1.5718749999999986 32.93332565489335 C-1.2125249779986738 32.81931789906936, -0.8531749559973488 32.70531014324538, 0 32.434630983364514 M-1.5718749999999986 32.93332565489335 C-1.0113338367326454 32.75548779164468, -0.45079267346529206 32.577649928396006, 0 32.434630983364514 M0 32.434630983364514 C0.50819618662409 32.2611667691846, 1.01639237324818 32.08770255500468, 1.5718749999999986 31.898097910427975 M0 32.434630983364514 C0.38402400208846654 32.30355085426906, 0.7680480041769331 32.17247072517361, 1.5718749999999986 31.898097910427975 M1.5718749999999986 31.898097910427975 C1.9538593861003082 31.7598353993597, 2.335843772200618 31.621572888291432, 3.1437500000000043 31.329144328832186 M1.5718749999999986 31.898097910427975 C2.0600567149439737 31.72139636915596, 2.548238429887949 31.544694827883944, 3.1437500000000043 31.329144328832186 M3.1437500000000043 31.329144328832186 C3.4726043976036016 31.204531903808967, 3.801458795207199 31.07991947878575, 4.715625000000003 30.733515512520963 M3.1437500000000043 31.329144328832186 C3.4709019569922805 31.205177007704737, 3.798053913984557 31.081209686577285, 4.715625000000003 30.733515512520963 M4.715625000000003 30.733515512520963 C5.12673482148198 30.572330539205584, 5.5378446429639565 30.411145565890205, 6.287499999999994 30.11722610105231 M4.715625000000003 30.733515512520963 C5.2595630287463315 30.52025221384168, 5.80350105749266 30.3069889151624, 6.287499999999994 30.11722610105231 M6.287499999999994 30.11722610105231 C6.746048249767838 29.933230146304155, 7.204596499535681 29.749234191556003, 7.859375 29.48649936397244 M6.287499999999994 30.11722610105231 C6.746253783601795 29.933147674298144, 7.205007567203596 29.749069247543975, 7.859375 29.48649936397244 M7.859375 29.48649936397244 C8.29475232243636 29.309566173299185, 8.730129644872719 29.132632982625932, 9.431249999999999 28.847704358451278 M7.859375 29.48649936397244 C8.464070887236385 29.24075672373337, 9.06876677447277 28.995014083494297, 9.431249999999999 28.847704358451278 M9.431249999999999 28.847704358451278 C9.941496146239041 28.639820058191308, 10.451742292478084 28.431935757931342, 11.003125000000004 28.207291614759427 M9.431249999999999 28.847704358451278 C9.914427629995764 28.65084830328397, 10.397605259991527 28.453992248116663, 11.003125000000004 28.207291614759427 M11.003125000000004 28.207291614759427 C11.485108764164218 28.012408851261167, 11.967092528328433 27.817526087762907, 12.575000000000003 27.571727999032614 M11.003125000000004 28.207291614759427 C11.576713027997469 27.97537006819136, 12.150301055994932 27.743448521623293, 12.575000000000003 27.571727999032614 M12.575000000000003 27.571727999032614 C12.951667648527078 27.422128108603225, 13.328335297054151 27.272528218173832, 14.146875000000001 26.94743141107705 M12.575000000000003 27.571727999032614 C13.176394781135865 27.332873949011205, 13.777789562271728 27.094019898989796, 14.146875000000001 26.94743141107705 M14.146875000000001 26.94743141107705 C14.590226139539446 26.776303037162222, 15.03357727907889 26.605174663247396, 15.71875 26.340705976635178 M14.146875000000001 26.94743141107705 C14.468783267699378 26.823178570634692, 14.790691535398754 26.698925730192332, 15.71875 26.340705976635178 M15.71875 26.340705976635178 C16.33699988837837 26.111389560722603, 16.955249776756737 25.88207314481003, 17.290625 25.757678388538018 M15.71875 26.340705976635178 C16.048390969574474 26.218438124910953, 16.37803193914895 26.09617027318673, 17.290625 25.757678388538018 M17.290625 25.757678388538018 C17.80328577123088 25.577175370515423, 18.315946542461756 25.39667235249283, 18.862499999999997 25.20423603956904 M17.290625 25.757678388538018 C17.85667671639794 25.55837692273368, 18.42272843279588 25.359075456929336, 18.862499999999997 25.20423603956904 M18.862499999999997 25.20423603956904 C19.46570557544297 25.005350995051128, 20.068911150885942 24.80646595053322, 20.434375000000003 24.685967571771783 M18.862499999999997 25.20423603956904 C19.443684860844435 25.01261152277425, 20.024869721688873 24.820987005979465, 20.434375000000003 24.685967571771783 M20.434375000000003 24.685967571771783 C20.849471592254094 24.559775268746424, 21.264568184508185 24.433582965721065, 22.00625 24.208106442532337 M20.434375000000003 24.685967571771783 C20.93034739070969 24.53518845339652, 21.42631978141938 24.384409335021253, 22.00625 24.208106442532337 M22.00625 24.208106442532337 C22.60547062498299 24.043182489039033, 23.204691249965972 23.878258535545733, 23.578125 23.775478077304346 M22.00625 24.208106442532337 C22.34741726870339 24.114206712764737, 22.688584537406776 24.020306982997138, 23.578125 23.775478077304346 M23.578125 23.775478077304346 C24.156852967612675 23.634456431532954, 24.735580935225347 23.493434785761558, 25.14999999999999 23.392451142626697 M23.578125 23.775478077304346 C24.18133291665405 23.628491275370802, 24.784540833308096 23.481504473437255, 25.14999999999999 23.392451142626697 M25.14999999999999 23.392451142626697 C25.57818434491819 23.30267844908472, 26.006368689836382 23.21290575554274, 26.721874999999997 23.062893431477175 M25.14999999999999 23.392451142626697 C25.63164722676054 23.291469475743057, 26.11329445352109 23.19048780885942, 26.721874999999997 23.062893431477175 M26.721874999999997 23.062893431477175 C27.192278595414162 22.981266343630207, 27.662682190828328 22.899639255783242, 28.293750000000003 22.79013280643033 M26.721874999999997 23.062893431477175 C27.279927702024427 22.966056975770922, 27.83798040404886 22.869220520064673, 28.293750000000003 22.79013280643033 M28.293750000000003 22.79013280643033 C28.790602773348585 22.72273966893813, 29.28745554669717 22.655346531445925, 29.865624999999994 22.57692359501423 M28.293750000000003 22.79013280643033 C28.886545693963846 22.70972596591127, 29.47934138792769 22.629319125392215, 29.865624999999994 22.57692359501423 M29.865624999999994 22.57692359501423 C30.308620873055485 22.53422553740565, 30.75161674611098 22.491527479797075, 31.4375 22.42541877660461 M29.865624999999994 22.57692359501423 C30.453275517727022 22.520283032007278, 31.040926035454053 22.463642469000327, 31.4375 22.42541877660461 M31.4375 22.42541877660461 C31.882672201843768 22.40041959513283, 32.327844403687536 22.375420413661057, 33.009375000000006 22.337148241712274 M31.4375 22.42541877660461 C32.0282400471999 22.392245057352977, 32.6189800943998 22.359071338101348, 33.009375000000006 22.337148241712274 M33.009375000000006 22.337148241712274 C33.54074748525687 22.3289860565968, 34.07211997051374 22.320823871481327, 34.58125 22.313003343200673 M33.009375000000006 22.337148241712274 C33.33232957794894 22.33218747478842, 33.65528415589787 22.327226707864565, 34.58125 22.313003343200673 M34.58125 22.313003343200673 C34.96140542491847 22.322731586061444, 35.341560849836945 22.332459828922218, 36.153125 22.353227895434948 M34.58125 22.313003343200673 C34.91183601702099 22.321463096367804, 35.24242203404197 22.32992284953493, 36.153125 22.353227895434948 M36.153125 22.353227895434948 C36.718948182620686 22.390732074903518, 37.28477136524137 22.428236254372088, 37.724999999999994 22.457415712252764 M36.153125 22.353227895434948 C36.65638622175367 22.386585311249554, 37.15964744350734 22.419942727064157, 37.724999999999994 22.457415712252764 M37.724999999999994 22.457415712252764 C38.25256789442663 22.51349909399331, 38.780135788853265 22.569582475733856, 39.296875 22.624514708618396 M37.724999999999994 22.457415712252764 C38.291398707000006 22.517627023891727, 38.85779741400002 22.57783833553069, 39.296875 22.624514708618396 M39.296875 22.624514708618396 C39.296875 6.197553646929531, 39.296875 -10.229407414759333, 39.296875 -28.6875 M39.296875 22.624514708618396 C39.296875 10.890196063380175, 39.296875 -0.8441225818580449, 39.296875 -28.6875 M39.296875 -28.6875 C9.346013701680704 -28.6875, -20.604847596638592 -28.6875, -39.296875 -28.6875 M39.296875 -28.6875 C21.798122873600303 -28.6875, 4.299370747200605 -28.6875, -39.296875 -28.6875 M-39.296875 -28.6875 C-39.296875 -6.083314697183077, -39.296875 16.520870605633846, -39.296875 28.6875 M-39.296875 -28.6875 C-39.296875 -16.254315337221072, -39.296875 -3.821130674442145, -39.296875 28.6875" stroke="#B8941F" stroke-width="1.3" fill="none" stroke-dasharray="0 0" style="fill:#FEF8E6 !important;stroke:#B8941F !important"/></g><g class="label" style="color:#6B5511 !important" transform="translate(-24.296875,-16.875)"><rect/><foreignObject width="48.59375" height="21"><div style="color: rgb(107, 85, 17) !important; display: table-cell; white-space: nowrap; line-height: 1.5; max-width: 200px; text-align: center;" xmlns="http://www.w3.org/1999/xhtml"><span style="color:#6B5511 !important" class="nodeLabel markdown-node-label"><p>「경로」/**</p></span></div></foreignObject></g></g><g class="node default tbd" id="my-svg-flowchart-o4-11" data-look="classic" transform="translate(94.984375, 721.9529685974121)"><g class="basic label-container outer-path" transform="translate(0,-4.5)"><path d="M-86.984375 40.5 C-86.984375 40.5, -86.984375 40.5, -86.984375 40.5 C-85.8454410388912 40.79567042614047, -84.70650707778239 41.09134085228094, -83.505 41.40325543366094 C-82.49824796960637 41.66197190243839, -81.49149593921273 41.92068837121584, -80.025625 42.29738982462966 C-79.25696984278012 42.49091019367735, -78.48831468556024 42.68443056272505, -76.54625 43.17337423419332 C-75.67002921485437 43.387177461583235, -74.79380842970873 43.60098068897315, -73.066875 44.02236300153482 C-72.02418609115655 44.266126344205006, -70.9814971823131 44.5098896868752, -69.5875 44.83578306691544 C-68.69427501898281 45.033364362176314, -67.80105003796561 45.23094565743719, -66.108125 45.605420542140806 C-65.19030509033443 45.79484277371219, -64.27248518066887 45.98426500528358, -62.62875 46.323503654125 C-61.74662390525484 46.49065032502397, -60.86449781050969 46.65779699592294, -59.149375 46.98278122399116 C-57.81608830234455 47.2103293307733, -56.4828016046891 47.437877437555436, -55.67 47.57659588922957 C-54.685577302773794 47.724386383625735, -53.701154605547586 47.8721768780219, -52.190625 48.09895132951814 C-51.399601354445146 48.20026180448888, -50.60857770889029 48.30157227945963, -48.71125 48.54457281736137 C-47.5329643051497 48.667972213158784, -46.354678610299395 48.791371608956204, -45.231875 48.90896048210951 C-43.94717666692714 49.01215146481549, -42.662478333854274 49.11534244752148, -41.7525 49.188434749499464 C-40.80638931101553 49.24057229699769, -39.86027862203105 49.29270984449592, -38.27312499999999 49.380173497870814 C-37.044974629088934 49.41620114511217, -35.816824258177874 49.45222879235353, -34.79375 49.482240555854446 C-34.0708526215643 49.48460175875051, -33.347955243128595 49.48696296164656, -31.314375 49.4936052537653 C-30.473656862634005 49.474407238992654, -29.632938725268012 49.455209224220006, -27.834999999999994 49.41415283126986 C-26.87475652472737 49.367382992802455, -25.914513049454747 49.32061315433505, -24.355625000000003 49.24468559623207 C-23.477217376679626 49.17960844523661, -22.598809753359244 49.11453129424116, -20.87625 48.98691482303578 C-20.09095573422572 48.909393405461174, -19.305661468451444 48.831871987886565, -17.396874999999994 48.64344347219418 C-16.656184586857737 48.55281956689195, -15.915494173715478 48.46219566158971, -13.917500000000004 48.21773990574287 C-12.999337337465246 48.084836517247346, -12.081174674930487 47.951933128751826, -10.438125 47.71410286383789 C-9.544629313685732 47.566062859863294, -8.651133627371465 47.4180228558887, -6.958749999999995 47.137618056223566 C-6.130053918710832 46.98435051519304, -5.301357837421668 46.83108297416251, -3.4793750000000045 46.49410680690826 C-2.573468365801358 46.31079972254668, -1.6675617316027114 46.1274926381851, 0 45.79006727063226 C0.9161783143132289 45.590615641733876, 1.8323566286264579 45.391164012835496, 3.4793750000000045 45.03260881472185 C4.810912229328488 44.725217755801786, 6.142449458656971 44.417826696881725, 6.958750000000009 44.229380228939554 C7.761826269982694 44.035294512322295, 8.564902539965379 43.84120879570503, 10.438125000000014 43.38849248826488 C11.63958413996739 43.0880545358676, 12.841043279934764 42.78761658347031, 13.91749999999999 42.51843684854443 C14.870747711763627 42.27448276360493, 15.823995423527265 42.03052867866542, 17.396874999999994 41.62799910207874 C18.45660861816314 41.353323993184155, 19.516342236326288 41.078648884289564, 20.87625 40.72617085899004 C22.235682075688587 40.37292379575553, 23.59511415137717 40.019676732521035, 24.355625000000003 39.82205875024861 C25.545221430035063 39.51528389421858, 26.734817860070123 39.20850903818855, 27.835000000000008 38.92479246922251 C28.867501273242777 38.66324974748309, 29.900002546485542 38.40170702574367, 31.314375000000013 38.04343258034407 C32.277127584114815 37.80642186777829, 33.23988016822962 37.56941115521252, 34.79374999999999 37.1868790258379 C35.91734009187041 36.92107712158187, 37.040930183740834 36.655275217325844, 38.27312499999999 36.36378125440661 C39.644888762051096 36.055737225052084, 41.01665252410219 35.74769319569755, 41.7525 35.58245087939158 C42.85007487465333 35.35164332198452, 43.94764974930667 35.12083576457746, 45.231875 34.85077774838369 C46.08480918868433 34.68539952976821, 46.93774337736867 34.52002131115273, 48.71125000000001 34.17615027181036 C49.73414810372838 33.99659074770956, 50.75704620745675 33.81703122360876, 52.19062500000001 33.565380815017896 C53.05545460821381 33.43097410636776, 53.9202842164276 33.29656739771763, 55.66999999999999 33.02463690723769 C56.80917340914798 32.872307974739094, 57.948346818295974 32.719979042240496, 59.14937499999999 32.55937896208542 C60.515618698910785 32.40817229850276, 61.881862397821585 32.256965634920114, 62.62875 32.17430513848988 C63.75405757143348 32.076954616058465, 64.87936514286696 31.97960409362705, 66.108125 31.873303898843616 C67.4032104779412 31.793690537521538, 68.69829595588241 31.714077176199464, 69.5875 31.6594147434418 C70.4588298347018 31.628207211429118, 71.33015966940361 31.596999679416435, 73.06687500000001 31.534797517711446 C74.25402035087448 31.523167232583848, 75.44116570174896 31.51153694745625, 76.54624999999999 31.500710602165654 C77.2685448423088 31.512499326538684, 77.99083968461761 31.52428805091171, 80.02562499999999 31.557498205319924 C81.07301377025 31.601775994966296, 82.12040254050001 31.64605378461267, 83.505 31.704586887886258 C84.40548156060515 31.765640272821418, 85.30596312121033 31.826693657756575, 86.984375 31.940491353343617 C86.984375 8.626437554181614, 86.984375 -14.68761624498039, 86.984375 -40.5 C50.65991024861464 -40.5, 14.335445497229287 -40.5, -86.984375 -40.5 C-86.984375 -16.5772596987457, -86.984375 7.3454806025086015, -86.984375 40.5" stroke="none" stroke-width="0" fill="#FEF6F5" style="fill:#FEF6F5 !important;stroke:#C0392B !important;stroke-dasharray:4 3 !important"/><path d="M-86.984375 40.5 C-86.984375 40.5, -86.984375 40.5, -86.984375 40.5 M-86.984375 40.5 C-86.984375 40.5, -86.984375 40.5, -86.984375 40.5 M-86.984375 40.5 C-86.25425808592166 40.68954038292769, -85.52414117184333 40.87908076585537, -83.505 41.40325543366094 M-86.984375 40.5 C-85.633849632269 40.85060014419255, -84.28332426453802 41.2012002883851, -83.505 41.40325543366094 M-83.505 41.40325543366094 C-82.33793984159723 41.703168097273604, -81.17087968319447 42.00308076088627, -80.025625 42.29738982462966 M-83.505 41.40325543366094 C-82.3368696680594 41.70344311188527, -81.16873933611882 42.003630790109604, -80.025625 42.29738982462966 M-80.025625 42.29738982462966 C-78.89366756712006 42.582376945446626, -77.7617101342401 42.8673640662636, -76.54625 43.17337423419332 M-80.025625 42.29738982462966 C-78.98753529616891 42.55874434844057, -77.94944559233782 42.820098872251485, -76.54625 43.17337423419332 M-76.54625 43.17337423419332 C-75.36898432834076 43.46063425400016, -74.19171865668152 43.74789427380701, -73.066875 44.02236300153482 M-76.54625 43.17337423419332 C-75.22860395936067 43.494887922092666, -73.91095791872135 43.81640160999201, -73.066875 44.02236300153482 M-73.066875 44.02236300153482 C-72.04543491565676 44.26115872208488, -71.02399483131353 44.49995444263494, -69.5875 44.83578306691544 M-73.066875 44.02236300153482 C-72.23330742809948 44.21723725016697, -71.39973985619898 44.41211149879911, -69.5875 44.83578306691544 M-69.5875 44.83578306691544 C-68.8214478136765 45.00523375003321, -68.055395627353 45.17468443315098, -66.108125 45.605420542140806 M-69.5875 44.83578306691544 C-68.2547761611913 45.13058147481151, -66.9220523223826 45.42537988270758, -66.108125 45.605420542140806 M-66.108125 45.605420542140806 C-65.2338924317499 45.78584709668206, -64.35965986349977 45.96627365122331, -62.62875 46.323503654125 M-66.108125 45.605420542140806 C-64.82576017672191 45.870078569228596, -63.54339535344382 46.134736596316394, -62.62875 46.323503654125 M-62.62875 46.323503654125 C-61.670716505361824 46.505033381215476, -60.71268301072365 46.68656310830596, -59.149375 46.98278122399116 M-62.62875 46.323503654125 C-61.38428331843532 46.55930720206144, -60.13981663687065 46.79511074999789, -59.149375 46.98278122399116 M-59.149375 46.98278122399116 C-58.35304284593307 47.11868888312127, -57.55671069186614 47.254596542251385, -55.67 47.57659588922957 M-59.149375 46.98278122399116 C-58.16605916971181 47.15060083544041, -57.182743339423624 47.31842044688965, -55.67 47.57659588922957 M-55.67 47.57659588922957 C-54.97371893746292 47.68112793909087, -54.27743787492584 47.78565998895216, -52.190625 48.09895132951814 M-55.67 47.57659588922957 C-54.968986636532435 47.68183839517454, -54.26797327306487 47.78708090111951, -52.190625 48.09895132951814 M-52.190625 48.09895132951814 C-51.30220039036172 48.21273644793267, -50.413775780723434 48.326521566347196, -48.71125 48.54457281736137 M-52.190625 48.09895132951814 C-50.94669227775772 48.25826820408972, -49.70275955551545 48.4175850786613, -48.71125 48.54457281736137 M-48.71125 48.54457281736137 C-47.378912390494385 48.68410574789742, -46.04657478098878 48.82363867843347, -45.231875 48.90896048210951 M-48.71125 48.54457281736137 C-47.42889921855893 48.67887073196881, -46.14654843711787 48.81316864657625, -45.231875 48.90896048210951 M-45.231875 48.90896048210951 C-44.031667847263236 49.005364869313325, -42.83146069452646 49.10176925651715, -41.7525 49.188434749499464 M-45.231875 48.90896048210951 C-43.94590358824788 49.012253722471314, -42.659932176495765 49.115546962833115, -41.7525 49.188434749499464 M-41.7525 49.188434749499464 C-40.87996412627826 49.23651779209663, -40.007428252556515 49.28460083469379, -38.27312499999999 49.380173497870814 M-41.7525 49.188434749499464 C-40.448528120172156 49.26029303903412, -39.144556240344315 49.33215132856876, -38.27312499999999 49.380173497870814 M-38.27312499999999 49.380173497870814 C-37.32391364777643 49.408018501679294, -36.374702295552865 49.435863505487774, -34.79375 49.482240555854446 M-38.27312499999999 49.380173497870814 C-37.476501097774204 49.40354236671066, -36.67987719554842 49.4269112355505, -34.79375 49.482240555854446 M-34.79375 49.482240555854446 C-33.770911899606816 49.485581456453744, -32.74807379921363 49.48892235705304, -31.314375 49.4936052537653 M-34.79375 49.482240555854446 C-33.912228935132376 49.48511987199722, -33.03070787026475 49.48799918814, -31.314375 49.4936052537653 M-31.314375 49.4936052537653 C-30.440506453112263 49.47365024086994, -29.566637906224525 49.45369522797458, -27.834999999999994 49.41415283126986 M-31.314375 49.4936052537653 C-30.42779424419896 49.47335995431174, -29.541213488397922 49.45311465485818, -27.834999999999994 49.41415283126986 M-27.834999999999994 49.41415283126986 C-26.649640400653933 49.356418435343386, -25.464280801307876 49.298684039416905, -24.355625000000003 49.24468559623207 M-27.834999999999994 49.41415283126986 C-26.567765675769845 49.35243062625538, -25.300531351539696 49.29070842124089, -24.355625000000003 49.24468559623207 M-24.355625000000003 49.24468559623207 C-23.023952675704354 49.14602816359609, -21.692280351408705 49.047370730960125, -20.87625 48.98691482303578 M-24.355625000000003 49.24468559623207 C-23.11520075947436 49.152788311354264, -21.874776518948714 49.06089102647646, -20.87625 48.98691482303578 M-20.87625 48.98691482303578 C-19.84799588758845 48.88540928569117, -18.8197417751769 48.783903748346546, -17.396874999999994 48.64344347219418 M-20.87625 48.98691482303578 C-19.54387795663697 48.85538786041822, -18.21150591327394 48.723860897800655, -17.396874999999994 48.64344347219418 M-17.396874999999994 48.64344347219418 C-16.029255689557257 48.47611444959582, -14.661636379114517 48.30878542699747, -13.917500000000004 48.21773990574287 M-17.396874999999994 48.64344347219418 C-16.56463538310447 48.541618468262584, -15.732395766208944 48.43979346433098, -13.917500000000004 48.21773990574287 M-13.917500000000004 48.21773990574287 C-12.796945817973848 48.0555404896035, -11.676391635947692 47.893341073464136, -10.438125 47.71410286383789 M-13.917500000000004 48.21773990574287 C-12.795229904733809 48.055292112389665, -11.672959809467613 47.89284431903647, -10.438125 47.71410286383789 M-10.438125 47.71410286383789 C-9.16910890375104 47.50384426851385, -7.900092807502081 47.293585673189824, -6.958749999999995 47.137618056223566 M-10.438125 47.71410286383789 C-9.14675220421751 47.500140069446644, -7.855379408435018 47.2861772750554, -6.958749999999995 47.137618056223566 M-6.958749999999995 47.137618056223566 C-5.577479482686216 46.88215173935948, -4.196208965372437 46.62668542249539, -3.4793750000000045 46.49410680690826 M-6.958749999999995 47.137618056223566 C-6.110712002861197 46.98077322317003, -5.2626740057224 46.8239283901165, -3.4793750000000045 46.49410680690826 M-3.4793750000000045 46.49410680690826 C-2.558934657425713 46.30785887676112, -1.6384943148514213 46.12161094661397, 0 45.79006727063226 M-3.4793750000000045 46.49410680690826 C-2.1227253238262835 46.21959342191747, -0.7660756476525625 45.945080036926676, 0 45.79006727063226 M0 45.79006727063226 C1.202260783917009 45.528335609920944, 2.404521567834018 45.26660394920964, 3.4793750000000045 45.03260881472185 M0 45.79006727063226 C1.3139787115486696 45.50401466464733, 2.6279574230973393 45.2179620586624, 3.4793750000000045 45.03260881472185 M3.4793750000000045 45.03260881472185 C4.347140347334486 44.83228147641242, 5.214905694668968 44.631954138103, 6.958750000000009 44.229380228939554 M3.4793750000000045 45.03260881472185 C4.281857280368016 44.84735235136985, 5.084339560736028 44.66209588801786, 6.958750000000009 44.229380228939554 M6.958750000000009 44.229380228939554 C8.275771151972021 43.911085437230554, 9.592792303944032 43.59279064552155, 10.438125000000014 43.38849248826488 M6.958750000000009 44.229380228939554 C8.062891590549306 43.962533704071745, 9.167033181098605 43.69568717920394, 10.438125000000014 43.38849248826488 M10.438125000000014 43.38849248826488 C11.827411523036576 43.04108625164032, 13.216698046073137 42.69368001501576, 13.91749999999999 42.51843684854443 M10.438125000000014 43.38849248826488 C11.760001315359432 43.05794290875955, 13.08187763071885 42.72739332925422, 13.91749999999999 42.51843684854443 M13.91749999999999 42.51843684854443 C14.835454761591864 42.28351489581748, 15.75340952318374 42.04859294309054, 17.396874999999994 41.62799910207874 M13.91749999999999 42.51843684854443 C15.200811689971555 42.19001316060296, 16.48412337994312 41.861589472661485, 17.396874999999994 41.62799910207874 M17.396874999999994 41.62799910207874 C18.404343020996997 41.36687084906095, 19.411811041993996 41.10574259604316, 20.87625 40.72617085899004 M17.396874999999994 41.62799910207874 C18.49113534811668 41.34437492037263, 19.585395696233363 41.06075073866652, 20.87625 40.72617085899004 M20.87625 40.72617085899004 C21.71327684937415 40.50867027056227, 22.550303698748305 40.29116968213451, 24.355625000000003 39.82205875024861 M20.87625 40.72617085899004 C22.113943687782406 40.40455739391746, 23.351637375564813 40.08294392884488, 24.355625000000003 39.82205875024861 M24.355625000000003 39.82205875024861 C25.15342755789249 39.61632026729885, 25.951230115784977 39.4105817843491, 27.835000000000008 38.92479246922251 M24.355625000000003 39.82205875024861 C25.43357849718267 39.5440745359756, 26.51153199436533 39.266090321702585, 27.835000000000008 38.92479246922251 M27.835000000000008 38.92479246922251 C29.18405799775211 38.583062817492134, 30.533115995504215 38.241333165761766, 31.314375000000013 38.04343258034407 M27.835000000000008 38.92479246922251 C28.824768959693163 38.67407426255307, 29.814537919386318 38.42335605588362, 31.314375000000013 38.04343258034407 M31.314375000000013 38.04343258034407 C32.65211208110909 37.714108074701905, 33.989849162218164 37.38478356905974, 34.79374999999999 37.1868790258379 M31.314375000000013 38.04343258034407 C32.53020842481734 37.74411835243971, 33.74604184963467 37.444804124535366, 34.79374999999999 37.1868790258379 M34.79374999999999 37.1868790258379 C35.89843088040033 36.92555037606595, 37.00311176080067 36.664221726294, 38.27312499999999 36.36378125440661 M34.79374999999999 37.1868790258379 C35.788520307025934 36.95155135267847, 36.78329061405188 36.71622367951905, 38.27312499999999 36.36378125440661 M38.27312499999999 36.36378125440661 C39.31444427614221 36.12994202163102, 40.35576355228443 35.89610278885542, 41.7525 35.58245087939158 M38.27312499999999 36.36378125440661 C39.64263895041175 36.056242443998556, 41.01215290082351 35.748703633590495, 41.7525 35.58245087939158 M41.7525 35.58245087939158 C42.957880854329964 35.32897294621549, 44.16326170865993 35.075495013039394, 45.231875 34.85077774838369 M41.7525 35.58245087939158 C42.6389903479173 35.396032005752225, 43.52548069583461 35.20961313211287, 45.231875 34.85077774838369 M45.231875 34.85077774838369 C46.23325011018846 34.65661783067152, 47.23462522037691 34.46245791295935, 48.71125000000001 34.17615027181036 M45.231875 34.85077774838369 C46.14835344148552 34.67307872533696, 47.064831882971035 34.49537970229022, 48.71125000000001 34.17615027181036 M48.71125000000001 34.17615027181036 C49.50379086263615 34.03702765577785, 50.2963317252723 33.89790503974534, 52.19062500000001 33.565380815017896 M48.71125000000001 34.17615027181036 C49.52641102025531 34.03305691350902, 50.34157204051061 33.88996355520768, 52.19062500000001 33.565380815017896 M52.19062500000001 33.565380815017896 C52.88897634837651 33.45684717402643, 53.587327696753015 33.34831353303496, 55.66999999999999 33.02463690723769 M52.19062500000001 33.565380815017896 C53.372563092960355 33.38169097901526, 54.5545011859207 33.19800114301263, 55.66999999999999 33.02463690723769 M55.66999999999999 33.02463690723769 C56.5669715238571 32.90469492683895, 57.46394304771422 32.784752946440214, 59.14937499999999 32.55937896208542 M55.66999999999999 33.02463690723769 C56.98516953767945 32.84877397880152, 58.3003390753589 32.67291105036534, 59.14937499999999 32.55937896208542 M59.14937499999999 32.55937896208542 C60.18497636292013 32.44476556843271, 61.22057772584027 32.33015217477999, 62.62875 32.17430513848988 M59.14937499999999 32.55937896208542 C60.372440733148075 32.42401827277426, 61.59550646629616 32.2886575834631, 62.62875 32.17430513848988 M62.62875 32.17430513848988 C63.73767247397357 32.07837209323387, 64.84659494794714 31.98243904797785, 66.108125 31.873303898843616 M62.62875 32.17430513848988 C64.01125484988788 32.054704441918446, 65.39375969977576 31.935103745347018, 66.108125 31.873303898843616 M66.108125 31.873303898843616 C67.22508115776964 31.80464075985854, 68.34203731553926 31.735977620873463, 69.5875 31.6594147434418 M66.108125 31.873303898843616 C67.19466062116635 31.806510814934793, 68.2811962423327 31.739717731025973, 69.5875 31.6594147434418 M69.5875 31.6594147434418 C70.90397664933674 31.612263841978425, 72.22045329867348 31.565112940515046, 73.06687500000001 31.534797517711446 M69.5875 31.6594147434418 C70.58591699480607 31.623655460232957, 71.58433398961213 31.587896177024113, 73.06687500000001 31.534797517711446 M73.06687500000001 31.534797517711446 C74.33876521161855 31.522336999880814, 75.61065542323709 31.509876482050178, 76.54624999999999 31.500710602165654 M73.06687500000001 31.534797517711446 C73.86222307575483 31.527005611783583, 74.65757115150963 31.51921370585572, 76.54624999999999 31.500710602165654 M76.54624999999999 31.500710602165654 C77.62489644433232 31.51831541516354, 78.70354288866467 31.53592022816142, 80.02562499999999 31.557498205319924 M76.54624999999999 31.500710602165654 C77.78573336528677 31.520940468007716, 79.02521673057355 31.541170333849777, 80.02562499999999 31.557498205319924 M80.02562499999999 31.557498205319924 C80.79817284525605 31.59015724459513, 81.5707206905121 31.62281628387034, 83.505 31.704586887886258 M80.02562499999999 31.557498205319924 C80.98390847448383 31.59800911713222, 81.94219194896766 31.63852002894452, 83.505 31.704586887886258 M83.505 31.704586887886258 C84.86511965070363 31.79680411056484, 86.22523930140727 31.889021333243424, 86.984375 31.940491353343617 M83.505 31.704586887886258 C84.65612566981363 31.78263414804408, 85.80725133962727 31.860681408201906, 86.984375 31.940491353343617 M86.984375 31.940491353343617 C86.984375 9.823486329590018, 86.984375 -12.29351869416358, 86.984375 -40.5 M86.984375 31.940491353343617 C86.984375 13.382406965726517, 86.984375 -5.175677421890583, 86.984375 -40.5 M86.984375 -40.5 C17.658572221387118 -40.5, -51.667230557225764 -40.5, -86.984375 -40.5 M86.984375 -40.5 C40.465798350404214 -40.5, -6.052778299191573 -40.5, -86.984375 -40.5 M-86.984375 -40.5 C-86.984375 -15.176185781063467, -86.984375 10.147628437873067, -86.984375 40.5 M-86.984375 -40.5 C-86.984375 -14.548756029099309, -86.984375 11.402487941801382, -86.984375 40.5" stroke="#C0392B" stroke-width="1.3" fill="none" stroke-dasharray="4 3" style="fill:#FEF6F5 !important;stroke:#C0392B !important;stroke-dasharray:4 3 !important"/></g><g class="label" style="color:#A03026 !important" transform="translate(-71.984375,-30)"><rect/><foreignObject width="143.96875" height="42"><div style="color: rgb(160, 48, 38) !important; display: table-cell; white-space: nowrap; line-height: 1.5; max-width: 200px; text-align: center;" xmlns="http://www.w3.org/1999/xhtml"><span style="color:#A03026 !important" class="nodeLabel markdown-node-label"><p>「아직 정하지 않은 산출물」<br />* 벤더 미정 — 자리만 있다</p></span></div></foreignObject></g></g></g></g></g><defs><filter id="my-svg-drop-shadow" height="130%" width="130%"><feDropShadow dx="4" dy="4" stdDeviation="0" flood-opacity="0.06" flood-color="#000000"/></filter></defs><defs><filter id="my-svg-drop-shadow-small" height="150%" width="150%"><feDropShadow dx="2" dy="2" stdDeviation="0" flood-opacity="0.06" flood-color="#000000"/></filter></defs><linearGradient id="my-svg-gradient" gradientUnits="objectBoundingBox" x1="0%" y1="0%" x2="100%" y2="0%"><stop offset="0%" stop-color="#5A6672" stop-opacity="1"/><stop offset="100%" stop-color="hsl(90, 0%, 86.0784313725%)" stop-opacity="1"/></linearGradient><text text-anchor="middle" x="263.9375" y="-25" class="flowchartTitleText">「제목」 — 「무엇에 대한 그림인가」</text></svg>